PathFileType	4	(X/Y/Z)	./resultDataOpenSim/trcMotMarkerGrf/sub09/qtm-01-07.trc
DataRate	CameraRate	NumFrames	NumMarkers	Units	OrigDataRate	OrigDataStartFrame	OrigNumFrames
250.000000	250.000000	10	24	m	250.000000	119	472
Frame#	Time	L.Toe.Tip			R.Toe.Tip			L.Ankle.Lat			R.Ankle.Lat			L.Ankle.Med			R.Ankle.Med			L.Heel			R.Heel			L.Knee.Lat			R.Knee.Lat			L.Knee.Med			R.Knee.Med			L.Thigh.Upper			R.Thigh.Upper			L.ASIS			R.ASIS			V.Sacral			L.Acromium			R.Acromium			C7			L.Elbow			R.Elbow			L.Wrist.Lat			R.Wrist.Lat
		X1	Y1	Z1	X2	Y2	Z2	X3	Y3	Z3	X4	Y4	Z4	X5	Y5	Z5	X6	Y6	Z6	X7	Y7	Z7	X8	Y8	Z8	X9	Y9	Z9	X10	Y10	Z10	X11	Y11	Z11	X12	Y12	Z12	X13	Y13	Z13	X14	Y14	Z14	X15	Y15	Z15	X16	Y16	Z16	X17	Y17	Z17	X18	Y18	Z18	X19	Y19	Z19	X20	Y20	Z20	X21	Y21	Z21	X22	Y22	Z22	X23	Y23	Z23	X24	Y24	Z24

119	0.472	-0.38497707	0.071242621	-0.010238404	-0.66742737	0.039021473	0.092470509	-0.52892316	0.10983837	-0.052503749	-0.8154035	0.056368463	0.11943285	-0.50843968	0.12290273	0.042797219	-0.80217747	0.094816838	0.029344169	-0.60015597	0.069209499	-0.010904367	-0.88195619	0.036187491	0.067092096	-0.46457387	0.52397028	-0.066493291	-0.71022433	0.50070165	0.18935996	-0.47270263	0.51775955	0.057987712	-0.71871295	0.49429066	0.061327445	-0.65209979	0.89783442	-0.12044075	-0.70183956	0.90913559	0.24886359	-0.58883143	0.98688773	-0.054425743	-0.59776174	0.99241367	0.18378962	-0.76131102	1.0384075	0.045123962	-0.59981207	1.4387053	-0.10590986	-0.6222192	1.4467714	0.22250063	-0.67570807	1.494692	0.057196687	-0.75678523	1.1088691	-0.16441861	-0.74519183	1.1006768	0.3194915	-0.65119368	0.86987074	-0.20210541	-0.55921553	0.89655266	0.30109199
120	0.476	-0.36446077	0.072415296	-0.0085503633	-0.66741971	0.039023021	0.092561065	-0.50923373	0.10706626	-0.051822025	-0.81542632	0.056458829	0.11925815	-0.48975753	0.12107291	0.043653531	-0.80203655	0.094870578	0.029175984	-0.5791424	0.064632432	-0.010186567	-0.88195687	0.03629114	0.066766718	-0.45749886	0.5232464	-0.066617518	-0.71149123	0.50023046	0.1903811	-0.46603444	0.51689989	0.057736796	-0.71701264	0.49432823	0.061394979	-0.64552638	0.89703395	-0.12040129	-0.69658135	0.90867166	0.24878105	-0.58232581	0.98619551	-0.05427377	-0.59180389	0.99174422	0.18400739	-0.75489439	1.0371348	0.044360692	-0.59402126	1.4381514	-0.10591893	-0.61629957	1.4461933	0.22245771	-0.66981566	1.4939693	0.057168496	-0.75179938	1.1088207	-0.16475428	-0.73868112	1.0998518	0.3197358	-0.64723131	0.86949739	-0.2029823	-0.55177518	0.8965673	0.30064686
121	0.48	-0.34408207	0.073839298	-0.0067136902	-0.66742601	0.039002803	0.092635805	-0.48953392	0.10458045	-0.051145282	-0.8154595	0.056545134	0.11903483	-0.47128401	0.1194948	0.044561479	-0.80184725	0.094920622	0.028974097	-0.55833095	0.060512693	-0.0096239298	-0.88195201	0.036410318	0.066395726	-0.45058804	0.52233994	-0.066823736	-0.71416033	0.49989266	0.19236065	-0.45965819	0.51582356	0.0573165	-0.71509713	0.49427287	0.061589829	-0.63883176	0.89613806	-0.1203387	-0.69129892	0.9081307	0.24867543	-0.57579554	0.98540543	-0.054122122	-0.58581937	0.99099967	0.18423095	-0.74848226	1.0358608	0.043728937	-0.58821279	1.4375221	-0.10593962	-0.61036728	1.4455175	0.22240613	-0.66405938	1.4931856	0.057181954	-0.7467726	1.1086844	-0.16509641	-0.73218017	1.0989435	0.31996403	-0.64307224	0.8690796	-0.20385848	-0.54433612	0.89650344	0.30021731
122	0.484	-0.32387854	0.07551608	-0.0047128253	-0.66742661	0.038971152	0.092703742	-0.46988371	0.10238312	-0.050471281	-0.81549626	0.056623602	0.1187668	-0.45299934	0.11816885	0.045507912	-0.80161665	0.094963392	0.028753577	-0.53780114	0.056866013	-0.0093703394	-0.88192773	0.036548767	0.065982941	-0.44376806	0.52125188	-0.067101283	-0.71739751	0.49965774	0.19486023	-0.45344324	0.51457653	0.056794766	-0.71297785	0.49410854	0.061891214	-0.6321878	0.8951278	-0.12026773	-0.68599002	0.90751469	0.24854783	-0.56923776	0.98451495	-0.053968712	-0.5798043	0.99017653	0.18446187	-0.74207983	1.0346108	0.043262242	-0.5823816	1.4368117	-0.10597686	-0.60444535	1.4447459	0.22236894	-0.65835961	1.4923458	0.057208496	-0.74167457	1.1084499	-0.1654002	-0.72569076	1.0979513	0.32017305	-0.63865365	0.86862043	-0.20468086	-0.5369028	0.89635297	0.29980191
123	0.488	-0.30389071	0.077451987	-0.0025367721	-0.66740981	0.038941668	0.092775969	-0.45031776	0.10048332	-0.049780412	-0.81552506	0.056709945	0.11846778	-0.43486635	0.11710461	0.046492538	-0.80135689	0.094998564	0.028527725	-0.51746059	0.053592064	-0.0091835779	-0.88185448	0.036708763	0.06552795	-0.43700559	0.51999188	-0.067429824	-0.72031716	0.49943613	0.19732102	-0.44734196	0.51318948	0.056206923	-0.71082902	0.49382503	0.062209423	-0.62566035	0.89400186	-0.12018726	-0.68066633	0.90683526	0.24840363	-0.56265505	0.98352599	-0.053808605	-0.57375989	0.9892776	0.18470061	-0.73568692	1.033395	0.042968353	-0.576542	1.436023	-0.10603411	-0.59853882	1.4438863	0.22234861	-0.65263589	1.4914399	0.057212332	-0.73649735	1.1081105	-0.16565904	-0.71921232	1.0968728	0.32036367	-0.63405482	0.86810178	-0.205444	-0.52948245	0.89611669	0.29939291
124	0.492	-0.28416055	0.079656796	-0.00018996103	-0.66737118	0.038929446	0.092862813	-0.43083133	0.098901195	-0.049017899	-0.81554031	0.056837087	0.1181487	-0.4168697	0.11633205	0.04753577	-0.80107264	0.09503019	0.028295398	-0.49722303	0.050606598	-0.008820406	-0.88171455	0.036885714	0.065031944	-0.43029409	0.51859262	-0.067805228	-0.72241972	0.49917672	0.19942623	-0.44134815	0.51166839	0.055576449	-0.70877255	0.4934718	0.062483933	-0.61919673	0.89277899	-0.12008792	-0.67533085	0.90610077	0.24824466	-0.55605034	0.98244101	-0.053636517	-0.56769624	0.98830964	0.18495008	-0.72929575	1.0321979	0.042813839	-0.57070201	1.4351629	-0.10610925	-0.59262508	1.4429467	0.2223226	-0.64686698	1.4904552	0.057180743	-0.73125543	1.1076704	-0.16590413	-0.7127455	1.095709	0.32053992	-0.62943549	0.86748757	-0.20619528	-0.52208546	0.89580074	0.29898663
125	0.496	-0.26473566	0.082138112	0.0022917785	-0.66731248	0.038941558	0.092971112	-0.41143536	0.097646359	-0.04813711	-0.81554362	0.057026215	0.11781199	-0.39898524	0.11587288	0.048642749	-0.80075939	0.095064703	0.028043721	-0.47705227	0.047891381	-0.0083538808	-0.88153845	0.037066959	0.064513168	-0.42362564	0.51709561	-0.068233387	-0.72361133	0.49886748	0.20111415	-0.43545387	0.51000257	0.054933544	-0.70670407	0.49314982	0.062718969	-0.61271621	0.89147719	-0.11997537	-0.66996528	0.90531065	0.24805852	-0.54942709	0.98126757	-0.053448854	-0.5616349	0.98727717	0.18521913	-0.72289449	1.0309809	0.042737131	-0.56485814	1.434234	-0.10619284	-0.58667994	1.4419291	0.22227201	-0.64106914	1.4893862	0.057121703	-0.72596125	1.1071398	-0.16616616	-0.70628757	1.0944623	0.32070237	-0.62490233	0.86674936	-0.20698537	-0.51472095	0.89540936	0.29858871
126	0.5	-0.24566462	0.084899044	0.0048369945	-0.66724505	0.038963493	0.093091301	-0.39222519	0.096703317	-0.04716264	-0.81554258	0.057254797	0.11746351	-0.38117236	0.11571219	0.049774172	-0.80041593	0.095108152	0.027770647	-0.45694565	0.045459643	-0.0079783045	-0.88138401	0.037242456	0.064000001	-0.41699367	0.51552378	-0.068724926	-0.7239729	0.49851283	0.20243322	-0.42964177	0.50818099	0.054310092	-0.70441387	0.49291648	0.062934979	-0.60615884	0.89010704	-0.1198628	-0.66455343	0.90446522	0.24783295	-0.54279338	0.98002056	-0.053238654	-0.55559216	0.98617718	0.18551543	-0.71647441	1.0297009	0.042687332	-0.55901097	1.4332378	-0.10627832	-0.5807166	1.4408324	0.22219922	-0.63525614	1.4882382	0.057046919	-0.72061392	1.1065228	-0.16644351	-0.6998326	1.0931338	0.32085023	-0.62044387	0.86589379	-0.20783231	-0.50738722	0.89494504	0.29820693
127	0.504	-0.22698325	0.087946389	0.0073645727	-0.66718986	0.038963261	0.093187513	-0.37333131	0.096050846	-0.046159613	-0.8155456	0.057474414	0.11712035	-0.36344862	0.11582563	0.050869485	-0.80005669	0.095165752	0.027496476	-0.4369786	0.043329351	-0.0076799764	-0.88127727	0.037416121	0.063507698	-0.41040083	0.51387816	-0.0692876	-0.72360303	0.49811851	0.20344257	-0.42388043	0.50619805	0.053726626	-0.70188292	0.49271454	0.063110693	-0.59951541	0.88867421	-0.11974749	-0.65910264	0.90356721	0.24758102	-0.53615524	0.97870958	-0.05300131	-0.54955424	0.98500352	0.18583017	-0.71003405	1.0283282	0.042646532	-0.55317392	1.4321822	-0.10637249	-0.57476487	1.4396562	0.22212292	-0.62942602	1.4870216	0.056962586	-0.71521009	1.105816	-0.16668616	-0.693377	1.0917258	0.32098726	-0.61597772	0.86494773	-0.2087253	-0.50007281	0.89440906	0.29784435
128	0.508	-0.20870571	0.091294845	0.0098286567	-0.66716372	0.03891678	0.093224401	-0.35481824	0.095680426	-0.045159219	-0.81555265	0.057661163	0.11680073	-0.34591472	0.1162104	0.051873699	-0.79970238	0.095241228	0.027245836	-0.41727747	0.041512444	-0.0072745634	-0.88120467	0.03760417	0.063037823	-0.40385213	0.51215154	-0.06989899	-0.72257067	0.49768717	0.20418178	-0.41812049	0.50405553	0.053198395	-0.69932671	0.49241658	0.063187504	-0.59282665	0.88717588	-0.11960881	-0.65362464	0.90261341	0.247324	-0.52950848	0.97733364	-0.052744694	-0.54349157	0.98376041	0.18614326	-0.70357788	1.0268505	0.0426162	-0.54735904	1.4310744	-0.10648974	-0.56882559	1.4384027	0.22206058	-0.62357054	1.4857474	0.056871448	-0.70976007	1.1050174	-0.16680163	-0.68691868	1.0902421	0.32111814	-0.61143413	0.86392743	-0.20963983	-0.49276951	0.89379928	0.29750141
